<?xml version="1.0"?>
<svg xmlns="http://www.w3.org/2000/svg" xmlns:xlink="http://www.w3.org/1999/xlink" version="1.1" id="Layer_1" x="0px" y="0px" width="100%" viewBox="0 0 225 225" enable-background="new 0 0 225 225" xml:space="preserve" style="background-color:transparent;">
<path fill="none" opacity="1.000000" stroke="none" d=" M134.000000,226.000000   C89.333336,226.000000 45.166672,226.000000 1.000006,226.000000   C1.000004,151.000000 1.000004,76.000015 1.000002,1.000016   C75.999992,1.000011 150.999985,1.000011 225.999969,1.000005   C225.999985,75.999985 225.999985,150.999969 226.000000,225.999969   C195.500000,226.000000 165.000000,226.000000 134.000000,226.000000  M130.587418,107.470062   C130.844940,106.425980 131.102478,105.381889 131.467972,103.842430   C132.487381,102.827263 133.506805,101.812096 135.248642,101.087570   C138.724869,104.094566 141.554413,102.334488 144.970871,99.943291   C147.173264,101.884666 149.375641,103.826042 150.964127,106.056122   C151.580139,106.705170 152.196136,107.354218 153.293213,108.557121   C154.979187,113.981285 156.633957,119.415497 158.376801,124.821327   C158.735962,125.935394 159.423630,126.943558 160.618500,127.914337   C160.485229,126.942734 160.351959,125.971123 160.123505,124.082428   C160.770645,116.761871 159.167145,109.905479 155.987289,102.633240   C156.426559,102.037369 156.865845,101.441490 157.919281,101.082596   C161.960678,104.488266 165.854950,108.091103 170.083420,111.246033   C174.622223,114.632492 177.736908,114.896606 182.738846,113.114990   C174.483185,111.643295 170.207352,105.470459 166.126709,98.662842   C166.472183,97.572021 166.817657,96.481201 167.765854,95.597290   C168.493820,96.030914 169.221802,96.464539 170.217529,97.473648   C170.892776,97.894272 171.568008,98.314896 172.243256,98.735519   C172.466827,98.404930 172.690414,98.074341 172.914001,97.743759   C172.068237,97.163963 171.222473,96.584167 170.060532,95.383110   C167.648071,93.445473 165.235611,91.507835 162.875015,88.756409   C162.414688,88.008804 161.954376,87.261192 161.494049,86.513588   C160.859863,87.028099 160.225677,87.542610 158.735153,88.028008   C155.527802,87.927101 152.320435,87.826195 149.049179,86.910675   C148.699951,85.625526 148.350723,84.340370 148.608398,82.593933   C154.739075,81.761902 160.869766,80.929871 167.079514,80.665215   C167.385910,80.977745 167.692307,81.290268 167.998718,81.602791   C168.332489,81.134552 168.666275,80.666306 169.764999,80.121979   C181.524948,81.767143 190.200272,88.972679 198.863815,96.333954   C194.490707,86.724960 187.526962,79.915344 177.225006,76.566818   C177.500351,75.995789 177.775696,75.424767 178.051041,74.853745   C185.237045,76.509109 192.423050,78.164474 199.839386,79.909676   C200.056015,79.791000 200.272659,79.672325 200.489288,79.553650   C200.302673,79.416229 200.116074,79.278801 199.316284,78.642120   C198.063873,77.681595 196.949310,76.278534 195.534943,75.837952   C189.740097,74.032860 183.853836,72.521202 178.000534,70.172020   C178.002441,69.199799 178.004349,68.227577 178.726990,66.984543   C182.110306,65.967796 185.493607,64.951057 189.476974,64.188477   C190.320908,63.563370 191.164825,62.938259 192.589981,61.911213   C203.490814,55.558846 208.687439,47.013462 206.697845,36.606915   C204.744110,47.799831 198.161057,53.106342 189.206009,55.907078   C185.577347,57.041958 181.822662,57.773903 178.062225,57.822407   C178.040741,57.533512 178.019257,57.244617 178.577286,56.509270   C182.460114,54.654743 186.342926,52.800220 190.928802,50.971397   C194.929825,49.631302 198.304672,47.709156 198.938385,42.234867   C194.937500,45.362480 191.501953,48.048141 187.571686,50.997227   C187.386002,51.017757 187.200302,51.038292 187.005310,50.277626   C186.995056,49.496422 186.984818,48.715214 187.253204,47.313000   C190.847595,43.407570 192.949371,39.110229 191.071503,33.074768   C186.226624,45.515331 175.202530,54.202217 166.203156,51.848148   C170.805939,49.106709 174.685623,46.795948 178.565308,44.485188   C169.081848,45.664482 161.910339,51.359936 153.696716,55.793068   C153.452393,55.163849 153.208054,54.534630 153.289139,53.327724   C157.095123,49.516361 160.901123,45.705002 165.321014,41.907829   C165.754135,41.594360 166.187256,41.280888 166.620377,40.967411   C166.180069,40.644936 165.739777,40.322456 165.212021,39.174210   C165.343704,31.763422 160.120773,27.971491 154.755508,23.501333   C154.026062,23.205854 153.296600,22.910376 152.567154,22.614901   C152.875992,23.187605 153.184845,23.760309 153.996368,24.656281   C160.920670,32.780720 161.198914,34.907639 155.326035,41.041035   C154.602036,42.189804 153.878036,43.338573 152.814331,45.031879   C151.464157,46.240047 150.222046,47.603249 148.746582,48.631660   C137.714249,56.321323 129.815796,66.366814 124.763550,79.076736   C124.254257,79.050186 123.744972,79.023636 123.104683,78.132889   C121.848221,73.974350 120.944016,69.664047 119.236168,65.699989   C117.530716,61.741478 115.020638,58.129623 112.950081,53.665600   C112.970833,53.431332 112.991585,53.197063 113.486549,53.044914   C113.486549,53.044914 113.964363,52.987488 114.534462,52.937771   C114.889679,52.675446 115.244896,52.413124 115.600113,52.150799   C115.201653,51.765606 114.803192,51.380417 114.163986,50.201588   C115.550217,46.374142 116.869698,42.520584 118.352104,38.730755   C119.045410,36.958321 120.182304,35.266838 117.432861,34.375664   C118.137115,33.830669 118.841370,33.285675 119.545624,32.740685   C119.165741,32.327599 118.785858,31.914511 118.405983,31.501425   C117.265511,32.657330 116.125038,33.813236 114.665421,35.604496   C113.738388,35.724300 112.811356,35.844105 111.304306,36.060028   C111.178345,36.913219 111.052376,37.766407 110.426842,38.882492   C107.289268,43.244003 104.151703,47.605515 100.726303,52.568657   C100.726303,54.862640 100.726303,57.156624 100.726303,59.450603   C101.483902,59.434994 102.241501,59.419384 102.999100,59.403774   C102.999100,57.382858 102.999100,55.361942 103.598305,52.994759   C104.340187,51.856884 105.082069,50.719009 105.912781,50.174274   C106.091293,50.735489 106.269806,51.296700 106.707756,52.678558   C110.053925,62.290787 110.348709,71.780846 105.370277,81.212143   C105.204575,81.436821 105.220169,81.654007 105.628502,82.704689   C105.821739,84.978302 106.014984,87.251907 105.868195,90.012123   C105.066216,88.936180 104.264236,87.860245 103.381096,86.089531   C99.889450,72.138779 93.403740,60.200294 81.658081,51.239777   C76.871689,47.588337 73.123055,42.576572 69.293610,37.584152   C70.117828,36.308788 70.942055,35.033428 71.766273,33.758064   C70.512497,33.171970 69.258713,32.585880 68.004936,31.292574   C69.484177,29.164391 70.963409,27.036205 73.024490,24.861559   C73.613373,24.196476 74.202263,23.531391 74.791153,22.866308   C74.466072,22.608521 74.140991,22.350731 73.815910,22.092943   C73.256683,22.847372 72.697464,23.601799 71.417915,24.579636   C69.448212,26.302225 67.273148,27.842072 65.547203,29.781578   C60.314213,35.662075 60.472023,40.515236 65.805717,46.255276   C66.581787,47.090473 67.315033,47.965458 68.018280,49.790764   C67.953712,50.763329 67.889145,51.735889 67.149323,52.418186   C61.006733,48.849415 55.215549,44.423817 47.242702,43.926640   C51.874325,46.663456 56.026558,49.117004 60.178795,51.570553   C59.778187,52.198730 59.377579,52.826904 58.976967,53.455078   C51.541241,50.274384 42.909191,49.074490 39.119656,39.656216   C38.656193,38.803173 38.192730,37.950134 37.313023,36.562344   C36.987465,35.579369 36.661903,34.596394 36.336342,33.613419   C35.886005,33.690483 35.435673,33.767544 34.985336,33.844604   C35.371452,36.812885 35.757572,39.781170 35.653099,43.381973   C33.209690,43.517651 30.766279,43.653332 27.416321,43.839348   C30.383034,46.625175 33.233261,49.301624 36.798355,52.055916   C40.866322,53.688797 44.934288,55.321678 48.936382,57.822495   C48.914276,58.111794 48.892166,58.401093 48.051491,58.638161   C35.643963,55.862724 23.447149,52.794029 19.800436,37.764992   C19.452557,48.161594 23.600267,55.979939 32.417545,60.596058   C38.103031,63.572582 44.392071,65.396271 49.777905,68.140533   C49.518185,69.060959 49.258465,69.981377 48.204178,71.108521   C40.000740,72.293892 32.145134,74.401680 25.430908,79.588959   C28.236702,79.263885 30.898169,78.479637 33.595837,77.850662   C36.177532,77.248734 38.779358,76.671814 41.404552,76.335060   C44.029175,75.998360 46.693703,75.972809 50.744659,75.724968   C37.036785,82.377762 30.257587,88.841492 27.590919,97.753693   C38.411022,87.272766 49.368534,78.516800 65.080032,80.666397   C65.387932,80.978035 65.695831,81.289673 66.003731,81.601311   C66.335739,81.130035 66.667755,80.658752 67.795197,80.102158   C71.946198,81.208160 76.097198,82.314163 79.957283,84.152267   C79.637794,85.388603 79.318298,86.624939 78.210579,87.912727   C74.513145,88.033394 70.815704,88.154068 66.705414,87.658562   C65.861458,88.296532 65.017502,88.934502 63.678619,89.972351   C61.337463,91.982925 58.996304,93.993507 56.052586,96.097816   C55.430199,96.748138 54.807808,97.398460 54.185421,98.048790   C54.853256,98.705902 55.521091,99.363014 56.188931,100.020126   C56.481480,98.968956 56.774033,97.917793 57.663769,96.544945   C60.776028,95.424278 63.888283,94.303619 67.084763,93.883102   C67.123817,94.114899 67.162880,94.346695 66.722427,95.001251   C64.650597,96.903244 62.366341,98.623093 60.548603,100.742958   C55.945721,106.110893 51.733780,111.883034 43.341106,113.482506   C50.467999,115.323967 55.367344,112.962456 59.896069,109.099983   C63.805305,105.765862 67.858597,102.600639 72.065948,100.574539   C72.170036,100.972198 72.274124,101.369858 72.102043,102.353653   C70.264053,108.232246 68.426056,114.110840 65.886047,119.996803   C64.629890,120.495163 63.373734,120.993530 62.117577,121.491890   C62.178303,121.900734 62.239025,122.309570 62.299751,122.718414   C63.772953,123.147438 65.246155,123.576454 66.902267,124.758095   C67.301498,125.905518 67.700737,127.052940 68.604065,128.668198   C71.773125,127.329216 71.983276,124.992538 69.130692,121.242752   C70.325455,117.683182 71.290176,114.024475 72.771080,110.588219   C74.788956,105.905983 77.088783,101.289017 83.418724,100.194794   C85.852303,102.490623 88.304665,102.487854 91.453415,100.138588   C92.631348,101.438980 93.809288,102.739365 95.064087,104.732559   C97.216896,109.641899 97.216896,109.641899 100.939186,107.773026   C99.442039,106.393257 98.024757,105.087097 96.418724,103.136665   C94.800018,95.709030 89.162460,92.083557 83.015770,88.193985   C83.503395,87.388023 83.991013,86.582069 85.109657,85.969597   C88.308693,88.207619 91.507729,90.445633 94.706764,92.683655   C94.945915,92.426155 95.185066,92.168663 95.424217,91.911163   C93.221741,89.140289 91.019272,86.369415 88.918839,82.706886   C88.953018,82.110703 88.987198,81.514526 89.655128,81.156723   C92.546318,84.018913 95.437500,86.881104 98.915382,90.324120   C98.915382,88.625282 98.915382,87.985924 99.345261,87.716400   C99.869316,87.651535 100.393379,87.586670 101.144821,88.259010   C101.811295,89.594978 102.440178,90.951363 103.152283,92.262550   C104.514870,94.771461 105.676880,93.372604 107.136429,92.766014   C108.486046,97.685547 109.835655,102.605080 111.185265,107.524612   C111.986534,107.620789 112.787804,107.716965 113.589066,107.813141   C115.772545,102.884125 117.956024,97.955109 120.688721,93.280296   C121.459480,92.845833 122.230240,92.411369 123.438156,91.375000   C124.632919,90.580338 125.827690,89.785667 127.250130,89.646782   C128.168015,89.257149 129.280334,89.077087 129.967850,88.439171   C132.160751,86.404526 134.043335,84.007660 136.370773,82.160103   C137.239212,81.470726 139.003922,81.910385 139.632126,82.191200   C137.057175,85.240479 134.482224,88.289749 131.907288,91.339027   C132.174713,91.622948 132.442123,91.906860 132.709549,92.190781   C136.077484,89.953133 139.445419,87.715485 143.066467,86.184898   C143.377411,87.115532 143.688354,88.046165 143.463181,89.419052   C137.942368,91.693756 133.578232,95.257942 131.206589,100.852257   C130.836746,101.724640 131.314468,102.956345 130.688171,104.053032   C130.455597,105.365654 130.223022,106.678276 129.423309,108.066856   C129.102417,108.373741 128.781509,108.680618 128.460617,108.987495   C128.670456,109.169724 128.880295,109.351952 129.090134,109.534180   C129.396454,109.025993 129.702774,108.517799 130.587418,107.470062  M98.893715,61.711388   C98.805687,61.663742 98.717651,61.616096 98.629623,61.568447   C98.747734,61.716465 98.865837,61.864479 99.001045,62.698139   C99.330437,63.307819 99.659836,63.917496 99.989220,64.527168   C100.271736,64.229187 100.554253,63.931210 100.836769,63.633228   C100.228485,63.083668 99.620201,62.534107 98.893715,61.711388  M101.071342,175.298370   C100.727318,172.193665 100.383301,169.088959 100.200951,165.251526   C100.146996,164.507202 100.093048,163.762894 100.250908,162.340057   C100.416176,160.915710 100.581444,159.491364 101.037323,157.359070   C102.906822,153.521622 104.776321,149.684158 107.212540,146.105988   C107.479897,146.416626 107.747246,146.727280 107.925514,147.817749   C107.284294,152.210602 106.643074,156.603455 105.776588,161.541290   C105.783897,162.240387 105.791206,162.939484 105.798515,163.638596   C106.193932,163.438980 106.589348,163.239380 107.703476,162.867401   C108.097260,161.566376 108.491035,160.265350 109.680054,158.998581   C110.531609,159.503906 111.383163,160.009232 112.301216,161.292740   C109.315285,174.215576 108.553421,187.050232 113.410416,200.671722   C114.032104,191.080643 114.585648,182.540802 115.845581,173.904755   C119.998940,170.804428 120.083076,169.894852 116.517479,167.041763   C117.530685,166.289551 118.543892,165.537354 119.717117,165.544540   C119.851425,166.075150 119.985733,166.605759 120.120041,167.136368   C120.328598,167.108292 120.537155,167.080231 120.745712,167.052170   C120.831459,166.457520 120.917198,165.862869 121.516724,164.771286   C122.056000,163.192795 122.595276,161.614288 123.986092,160.030548   C124.269936,160.028000 124.553780,160.025436 124.884026,160.630264   C124.759781,161.219330 124.635544,161.808395 124.125130,163.132355   C124.076462,163.404755 124.027786,163.677155 123.932343,164.727234   C123.902344,165.505508 123.872337,166.283768 123.369003,167.517303   C123.369003,168.536606 123.369003,169.555893 123.369003,170.575195   C123.935295,170.571854 124.501595,170.568512 125.067886,170.565170   C125.067886,169.385132 125.067886,168.205078 125.285614,166.307556   C130.041458,157.123871 130.233429,147.665726 127.789207,137.982956   C128.322876,137.941711 128.856537,137.900482 129.966492,138.151367   C135.392487,142.462234 140.998062,146.663574 139.377914,155.272919   C139.967697,155.154205 140.557480,155.035492 141.147278,154.916779   C141.415802,151.307220 141.684326,147.697662 142.252167,143.485397   C143.990753,143.407227 145.729340,143.329056 149.092377,143.177856   C147.092194,141.639267 146.001755,140.800476 145.084976,139.410339   C145.177551,139.241364 145.270142,139.072388 145.724411,138.483551   C145.534760,137.668610 145.345108,136.853653 144.788132,135.446060   C142.931732,131.088348 139.180710,129.344650 134.956635,128.057190   C130.590607,126.726463 126.313141,125.105209 121.822197,122.966743   C120.175751,122.325905 118.529305,121.685074 116.322571,120.610275   C115.795700,118.318321 115.268829,116.026367 114.851608,113.034164   C114.633377,112.540070 114.415138,112.045975 114.196892,111.551888   C113.798058,112.029160 113.399216,112.506439 112.796967,113.505363   C112.187294,115.808487 111.726707,118.164207 110.936676,120.403709   C109.326805,124.967216 107.539345,129.468079 105.082947,133.931488   C104.835602,133.910172 104.588249,133.888840 104.409653,133.078918   C105.411301,130.266235 106.412949,127.453568 107.214943,125.201538   C101.659172,127.066315 96.012909,128.877884 90.426392,130.858047   C83.686554,133.247009 80.941208,137.936798 82.425163,144.208344   C85.805229,137.186417 90.351974,134.169281 98.142349,134.850571   C91.855652,141.127075 83.321709,146.347794 89.880928,156.472122   C88.983154,150.310318 92.345329,146.243698 96.625458,142.801208   C97.550598,142.057144 99.281227,142.314560 100.377388,142.822739   C96.252075,150.143921 95.153023,157.867859 97.343445,166.762924   C98.236893,169.819946 99.130348,172.876968 100.073120,176.641953   C100.640938,177.666595 101.208748,178.691238 101.776566,179.715881   C102.235413,179.421967 102.694260,179.128052 103.153107,178.834137   C102.411438,177.881058 101.669769,176.927979 101.071342,175.298370  M113.624916,202.475082   C113.838890,202.529922 114.052856,202.584763 114.266823,202.639618   C114.129280,202.504654 113.991730,202.369675 113.624916,202.475082  M130.625778,93.474670   C130.839355,93.529434 131.052917,93.584190 131.266495,93.638947   C131.129211,93.504158 130.991928,93.369370 130.625778,93.474670  M202.408066,80.482513   C202.408066,80.482513 202.522400,80.413681 202.408066,80.482513  M107.408371,165.482361   C107.408371,165.482361 107.523682,165.412689 107.408371,165.482361  z"/>
<path fill="#FD9C3B" opacity="1.000000" stroke="none" d=" M38.849167,40.304485   C42.909191,49.074490 51.541241,50.274384 58.976967,53.455078   C59.377579,52.826904 59.778187,52.198730 60.178795,51.570553   C56.026558,49.117004 51.874325,46.663456 47.242702,43.926640   C55.215549,44.423817 61.006733,48.849415 67.698517,52.778328   C74.447807,58.573032 80.647911,64.007599 86.987350,69.726021   C89.101944,72.177498 91.077202,74.345116 93.338272,76.692093   C95.387848,80.363159 97.151619,83.854866 98.915382,87.346573   C98.915382,87.985924 98.915382,88.625282 98.915382,90.324120   C95.437500,86.881104 92.546318,84.018913 89.147156,80.743591   C87.413078,79.898804 86.186974,79.467148 84.980072,79.017525   C84.999275,78.999550 84.972870,79.044861 85.116028,78.695518   C79.575478,74.079018 73.324837,71.534538 65.750664,71.914932   C64.335182,71.536575 63.242092,71.275536 61.948563,70.686447   C57.968952,69.484474 54.189785,68.610550 50.410618,67.736633   C44.392071,65.396271 38.103031,63.572582 32.417545,60.596058   C23.600267,55.979939 19.452557,48.161594 19.800436,37.764992   C23.447149,52.794029 35.643963,55.862724 48.742649,58.801655   C50.529472,59.230553 51.625137,59.495953 52.720802,59.761356   C52.858837,59.322884 52.996872,58.884411 53.134911,58.445942   C51.757359,57.948814 50.379807,57.451687 49.002254,56.954559   C44.934288,55.321678 40.866322,53.688797 36.405491,51.750057   C38.523140,51.444199 41.033649,51.444199 43.643574,51.444199   C41.186230,48.595356 38.664959,45.672405 36.143688,42.749451   C35.757572,39.781170 35.371452,36.812885 34.985336,33.844604   C35.435673,33.767544 35.886005,33.690483 36.336342,33.613419   C36.661903,34.596394 36.987465,35.579369 37.548027,37.177628   C38.138409,38.630104 38.493790,39.467297 38.849167,40.304485  M60.442326,53.792824   C60.823921,53.683002 61.205517,53.573177 61.587112,53.463352   C61.498150,53.233410 61.377937,52.797684 61.325108,52.805710   C60.853867,52.877270 60.394520,53.027153 60.442326,53.792824  z"/>
<path fill="#FD9C3B" opacity="1.000000" stroke="none" d=" M178.125320,58.689194   C181.822662,57.773903 185.577347,57.041958 189.206009,55.907078   C198.161057,53.106342 204.744110,47.799831 206.697845,36.606915   C208.687439,47.013462 203.490814,55.558846 192.004303,62.162819   C190.571381,62.921051 189.724152,63.427677 188.876923,63.934307   C185.493607,64.951057 182.110306,65.967796 177.984344,67.134476   C171.568787,68.530197 165.814362,69.493309 160.245300,71.099266   C154.380600,72.790497 148.623581,74.929451 142.989120,77.279480   C141.914124,77.727844 141.628616,80.069099 140.914398,81.600662   C140.704285,81.786072 140.540955,81.843048 140.359940,81.835228   C139.003922,81.910385 137.239212,81.470726 136.370773,82.160103   C134.043335,84.007660 132.160751,86.404526 129.967850,88.439171   C129.280334,89.077087 128.168015,89.257149 127.129272,89.343704   C127.008408,89.040619 126.955505,89.038055 127.272278,88.889908   C127.733063,88.309288 127.877068,87.876823 128.143967,87.138496   C129.328445,83.550758 130.390030,80.268875 131.742050,77.362732   C135.081558,74.610336 138.130630,71.482201 141.466415,68.169960   C145.932327,64.042046 150.111526,60.098240 154.290741,56.154442   C161.910339,51.359936 169.081848,45.664482 178.565308,44.485188   C174.685623,46.795948 170.805939,49.106709 166.203156,51.848148   C175.202530,54.202217 186.226624,45.515331 191.071503,33.074768   C192.949371,39.110229 190.847595,43.407570 186.807831,47.759762   C185.037445,49.324566 183.712433,50.442608 182.387405,51.560654   C182.493820,51.806606 182.600235,52.052563 182.706650,52.298519   C184.142639,51.885288 185.578613,51.472061 187.014603,51.058830   C187.200302,51.038292 187.386002,51.017757 188.178284,50.903633   C189.265167,50.855259 189.745468,50.900478 190.225754,50.945694   C186.342926,52.800220 182.460114,54.654743 177.936615,56.738861   C175.970749,57.398518 174.645538,57.828587 173.320328,58.258656   C173.471359,58.719028 173.622391,59.179398 173.773422,59.639771   C175.224060,59.322910 176.674683,59.006054 178.125320,58.689194  M166.582138,52.485775   C166.177216,52.792488 165.772293,53.099197 165.367371,53.405907   C165.934845,53.319916 166.502319,53.233921 166.582138,52.485775  z"/>
<path fill="#D52423" opacity="1.000000" stroke="none" d=" M120.139503,93.026093   C117.956024,97.955109 115.772545,102.884125 113.589066,107.813141   C112.787804,107.716965 111.986534,107.620789 111.185265,107.524612   C109.835655,102.605080 108.486046,97.685547 107.011551,92.063385   C106.660530,90.749016 106.434380,90.137268 106.208221,89.525520   C106.014984,87.251907 105.821739,84.978302 105.646202,82.101852   C105.663902,81.499023 105.571144,81.067825 105.571144,81.067825   C110.348709,71.780846 110.053925,62.290787 106.705872,51.995621   C106.574463,50.458881 106.444939,49.605076 106.315414,48.751270   C106.151588,49.027889 105.987770,49.304508 105.823959,49.581131   C105.082069,50.719009 104.340187,51.856884 103.070862,52.964325   C102.033653,52.611607 101.523888,52.289318 101.014130,51.967026   C104.151703,47.605515 107.289268,43.244003 110.955414,38.805065   C111.617432,37.806396 111.750877,36.885151 111.884323,35.963909   C112.811356,35.844105 113.738388,35.724300 115.175110,35.302948   C116.143425,34.957047 116.602051,34.912693 117.060684,34.868336   C120.182304,35.266838 119.045410,36.958321 118.352104,38.730755   C116.869698,42.520584 115.550217,46.374142 114.189926,50.925568   C114.132027,52.095531 114.048195,52.541508 113.964363,52.987488   C113.964363,52.987488 113.486549,53.044914 113.203278,52.674557   C112.593742,51.907089 112.267487,51.509979 111.941238,51.112873   C112.248596,52.197182 112.555954,53.281490 112.863312,54.365799   C115.020638,58.129623 117.530716,61.741478 119.236168,65.699989   C120.944016,69.664047 121.848221,73.974350 123.055283,78.958168   C122.050423,84.197662 121.094963,88.611877 120.139503,93.026093  z"/>
<path fill="#FDCD0C" opacity="1.000000" stroke="none" d=" M159.959869,128.000534   C159.423630,126.943558 158.735962,125.935394 158.376801,124.821327   C156.633957,119.415497 154.979187,113.981285 153.032288,108.017242   C152.373581,106.907379 151.975815,106.337395 151.578033,105.767418   C149.375641,103.826042 147.173264,101.884666 144.310303,99.648140   C140.608551,99.834305 137.567398,100.315620 134.526230,100.796936   C133.506805,101.812096 132.487381,102.827263 131.450897,104.016678   C131.433807,104.190926 131.400284,104.021889 131.400284,104.021889   C131.314468,102.956345 130.836746,101.724640 131.206589,100.852257   C133.578232,95.257942 137.942368,91.693756 144.068298,89.194687   C146.153305,88.555305 147.633194,88.140289 149.113083,87.725281   C152.320435,87.826195 155.527802,87.927101 159.343353,88.275421   C160.908752,88.871964 161.865952,89.221085 162.823151,89.570206   C165.235611,91.507835 167.648071,93.445473 170.056274,95.890656   C170.017929,96.564850 169.983841,96.731506 169.949768,96.898163   C169.221802,96.464539 168.493820,96.030914 167.211990,95.272324   C163.120651,93.774666 159.583176,92.601982 156.045715,91.429298   C155.992676,91.726326 155.939636,92.023354 155.886612,92.320381   C159.189789,94.701248 162.492981,97.082115 165.796158,99.462990   C170.207352,105.470459 174.483185,111.643295 182.738846,113.114990   C177.736908,114.896606 174.622223,114.632492 170.083420,111.246033   C165.854950,108.091103 161.960678,104.488266 157.412262,100.683029   C156.073746,99.939186 155.242218,99.594910 154.144714,99.151382   C153.366241,99.243668 152.853775,99.435204 152.341293,99.626740   C152.688705,99.951775 153.036133,100.276810 153.549072,100.866989   C154.429138,101.888359 155.143677,102.644585 155.858200,103.400810   C159.167145,109.905479 160.770645,116.761871 160.090088,124.910172   C160.024414,126.492126 159.992142,127.246330 159.959869,128.000534  z"/>
<path fill="#FDCD0C" opacity="1.000000" stroke="none" d=" M67.000542,93.182953   C63.888283,94.303619 60.776028,95.424278 57.319603,96.462936   C56.975437,96.380928 56.655148,96.004082 56.655148,96.004082   C58.996304,93.993507 61.337463,91.982925 64.243538,89.690811   C65.578392,89.031090 66.348335,88.652916 67.118271,88.274734   C70.815704,88.154068 74.513145,88.033394 78.922836,88.031464   C80.756981,88.418129 81.878860,88.686058 83.000748,88.953987   C89.162460,92.083557 94.800018,95.709030 96.248138,103.548477   C95.714119,103.986778 95.350670,104.013268 94.987228,104.039749   C93.809288,102.739365 92.631348,101.438980 90.937920,99.863510   C87.852158,99.679138 85.281891,99.769836 82.711624,99.860535   C77.088783,101.289017 74.788956,105.905983 72.771080,110.588219   C71.290176,114.024475 70.325455,117.683182 69.040268,121.997696   C68.666557,124.568550 68.383263,126.384460 68.099968,128.200363   C67.700737,127.052940 67.301498,125.905518 66.870270,123.981422   C66.754868,122.132980 66.671471,121.061203 66.588066,119.989433   C68.426056,114.110840 70.264053,108.232246 72.532532,101.906082   C73.771057,101.037102 74.579094,100.615692 75.387123,100.194275   C75.103325,99.824600 74.819527,99.454926 74.535721,99.085243   C73.639885,99.177086 72.744049,99.268921 71.848206,99.360764   C67.858597,102.600639 63.805305,105.765862 59.896069,109.099983   C55.367344,112.962456 50.467999,115.323967 43.341106,113.482506   C51.733780,111.883034 55.945721,106.110893 60.548603,100.742958   C62.366341,98.623093 64.650597,96.903244 67.290916,94.682793   C68.413757,94.097374 68.968117,93.830421 70.742256,92.976067   C68.552109,93.097168 67.776329,93.140060 67.000542,93.182953  z"/>
<path fill="#D52625" opacity="1.000000" stroke="none" d=" M124.511307,162.397461   C124.635544,161.808395 124.759781,161.219330 124.975342,159.955765   C124.844948,156.326569 124.623230,153.371857 124.418137,150.047989   C121.561317,143.692047 118.687866,137.705276 115.639503,131.354080   C112.122543,137.021393 109.384178,141.434052 106.645813,145.846710   C104.776321,149.684158 102.906822,153.521622 100.621376,157.908173   C100.149986,159.977692 100.094543,161.498138 100.039093,163.018570   C100.093048,163.762894 100.146996,164.507202 99.776337,165.611237   C98.664452,165.988113 97.977165,166.005280 97.289886,166.022430   C95.153023,157.867859 96.252075,150.143921 100.486237,142.436829   C100.595093,142.050934 100.523331,142.076279 100.915916,142.024796   C101.529305,141.530869 101.750114,141.088425 102.003685,140.606506   C102.036453,140.567032 101.964676,140.493698 102.144554,140.133759   C102.579285,138.851288 102.834137,137.928772 103.050476,137.007965   C103.011963,137.009689 103.020210,137.086349 103.360901,137.209808   C103.827118,136.898346 103.952629,136.463425 104.041428,136.018036   C104.004715,136.007568 104.055984,136.064163 104.360229,136.067963   C105.051331,135.379440 105.438194,134.687088 105.825058,133.994751   C107.539345,129.468079 109.326805,124.967216 110.936676,120.403709   C111.726707,118.164207 112.187294,115.808487 113.158127,113.434135   C113.926842,113.486740 114.334396,113.610580 114.741959,113.734413   C115.268829,116.026367 115.795700,118.318321 116.648018,121.185539   C120.311600,127.174156 123.649727,132.587509 126.987854,138.000854   C130.233429,147.665726 130.041458,157.123871 124.872177,166.735687   C124.253273,167.129898 124.047798,167.095963 123.842331,167.062042   C123.872337,166.283768 123.902344,165.505508 124.154770,164.209778   C124.421906,163.260696 124.466606,162.829071 124.511307,162.397461  z"/>
<path fill="#FB6C3C" opacity="1.000000" stroke="none" d=" M62.149006,71.014496   C63.242092,71.275536 64.335182,71.536575 65.905067,72.257935   C70.300041,73.948555 74.235344,75.127594 78.129936,76.428490   C80.444031,77.201462 82.694046,78.166290 84.972870,79.044861   C84.972870,79.044861 84.999275,78.999550 84.714233,79.305283   C85.891731,80.940193 87.354263,82.269363 88.816803,83.598534   C91.019272,86.369415 93.221741,89.140289 95.424217,91.911163   C95.185066,92.168663 94.945915,92.426155 94.706764,92.683655   C91.507729,90.445633 88.308693,88.207619 84.560699,85.609207   C82.757225,84.639267 81.502716,84.029716 80.248199,83.420166   C76.097198,82.314163 71.946198,81.208160 67.071709,80.047852   C65.898964,80.028435 65.449699,80.063309 65.000443,80.098183   C49.368534,78.516800 38.411022,87.272766 27.590919,97.753693   C30.257587,88.841492 37.036785,82.377762 50.744659,75.724968   C46.693703,75.972809 44.029175,75.998360 41.404552,76.335060   C38.779358,76.671814 36.177532,77.248734 33.595837,77.850662   C30.898169,78.479637 28.236702,79.263885 25.430908,79.588959   C32.145134,74.401680 40.000740,72.293892 49.045815,71.069824   C53.974636,71.025589 58.061821,71.020042 62.149006,71.014496  z"/>
<path fill="#FB6C3C" opacity="1.000000" stroke="none" d=" M139.996033,82.013214   C140.540955,81.843048 140.704285,81.786072 141.164108,81.335190   C152.324036,72.835800 164.991257,71.249199 178.001236,70.901535   C183.853836,72.521202 189.740097,74.032860 195.534943,75.837952   C196.949310,76.278534 198.063873,77.681595 199.326859,78.959396   C199.427979,79.457733 199.518524,79.638779 199.609055,79.819832   C192.423050,78.164474 185.237045,76.509109 178.051041,74.853745   C177.775696,75.424767 177.500351,75.995789 177.225006,76.566818   C187.526962,79.915344 194.490707,86.724960 198.863815,96.333954   C190.200272,88.972679 181.524948,81.767143 169.055817,80.068504   C167.897888,80.042633 167.449173,80.070236 167.000443,80.097839   C160.869766,80.929871 154.739075,81.761902 147.976318,82.835419   C145.833954,83.877220 144.323669,84.677536 142.813370,85.477844   C139.445419,87.715485 136.077484,89.953133 132.709549,92.190781   C132.442123,91.906860 132.174713,91.622948 131.907288,91.339027   C134.482224,88.289749 137.057175,85.240479 139.996033,82.013214  z"/>
<path fill="#FDCD0C" opacity="1.000000" stroke="none" d=" M131.451614,76.986992   C130.390030,80.268875 129.328445,83.550758 127.653603,87.095222   C127.012062,87.917885 126.983788,88.477974 126.955505,89.038055   C126.955505,89.038055 127.008408,89.040619 127.015434,89.015808   C125.827690,89.785667 124.632919,90.580338 122.923203,91.456161   C123.446899,87.414589 124.485550,83.291862 125.524193,79.169128   C129.815796,66.366814 137.714249,56.321323 148.746582,48.631660   C150.222046,47.603249 151.464157,46.240047 153.269958,44.585205   C154.530930,43.110275 155.336243,42.082020 156.141571,41.053768   C161.198914,34.907639 160.920670,32.780720 154.006943,24.565197   C154.352203,24.348057 154.686874,24.221998 155.021561,24.095943   C160.120773,27.971491 165.343704,31.763422 165.131165,39.894516   C164.935913,41.041096 164.821518,41.467369 164.707123,41.893639   C160.901123,45.705002 157.095123,49.516361 152.807678,53.729935   C147.851501,58.411411 143.376801,62.690681 138.611237,67.134079   C136.030807,70.527809 133.741211,73.757401 131.451614,76.986992  z"/>
<path fill="#FDCD0C" opacity="1.000000" stroke="none" d=" M99.130325,87.531487   C97.151619,83.854866 95.387848,80.363159 93.803772,76.753387   C91.761063,73.172119 89.538666,69.708923 87.215698,65.946159   C80.766113,60.038406 74.417099,54.430222 68.068092,48.822037   C67.315033,47.965458 66.581787,47.090473 65.805717,46.255276   C60.472023,40.515236 60.314213,35.662075 65.547203,29.781578   C67.273148,27.842072 69.448212,26.302225 71.772415,24.650986   C72.126923,24.722334 72.442650,24.908020 72.442650,24.908020   C70.963409,27.036205 69.484177,29.164391 67.835037,32.031174   C68.077515,34.574421 68.489891,36.379070 68.902267,38.183720   C73.123055,42.576572 76.871689,47.588337 81.658081,51.239777   C93.403740,60.200294 99.889450,72.138779 103.243591,86.687904   C102.376534,87.364784 101.646980,87.443291 100.917435,87.521805   C100.393379,87.586670 99.869316,87.651535 99.130325,87.531487  z"/>
<path fill="#FCCE11" opacity="1.000000" stroke="none" d=" M115.139191,174.000946   C114.585648,182.540802 114.032104,191.080643 113.410416,200.671722   C108.553421,187.050232 109.315285,174.215576 112.507515,160.548599   C113.336143,152.505630 113.958466,145.206802 114.619972,137.448517   C119.602066,143.473740 119.147789,150.268570 118.817215,157.379822   C118.335655,159.500931 117.815903,161.240662 117.805222,162.983505   C117.802040,163.501846 119.228241,164.028946 120.011711,164.521545   C120.023918,164.491043 119.966034,164.459991 119.825363,164.492950   C119.684692,164.525894 119.557098,164.785156 119.557098,164.785156   C118.543892,165.537354 117.530685,166.289551 116.317986,167.773621   C115.792061,170.337296 115.465630,172.169128 115.139191,174.000946  z"/>
<path fill="#FC9E3E" opacity="1.000000" stroke="none" d=" M100.523331,142.076279   C100.523331,142.076279 100.595093,142.050934 100.617966,142.080811   C99.281227,142.314560 97.550598,142.057144 96.625458,142.801208   C92.345329,146.243698 88.983154,150.310318 89.880928,156.472122   C83.321709,146.347794 91.855652,141.127075 98.142349,134.850571   C90.351974,134.169281 85.805229,137.186417 82.425163,144.208344   C80.941208,137.936798 83.686554,133.247009 90.426392,130.858047   C96.012909,128.877884 101.659172,127.066315 107.214943,125.201538   C106.412949,127.453568 105.411301,130.266235 104.229523,133.734619   C104.051582,134.948273 104.053780,135.506210 104.055984,136.064163   C104.055984,136.064163 104.004715,136.007568 103.720833,135.964813   C103.298035,136.310150 103.159126,136.698242 103.020218,137.086349   C103.020210,137.086349 103.011963,137.009689 102.706665,137.073547   C101.697845,138.170227 100.994324,139.203018 100.290802,140.235840   C100.848755,140.321793 101.406715,140.407745 101.964676,140.493713   C101.964676,140.493698 102.036453,140.567032 101.551727,140.585266   C100.885773,141.094421 100.704544,141.585342 100.523331,142.076279  M99.549583,133.730118   C99.174927,133.586487 98.800278,133.442871 98.425621,133.299240   C98.355225,133.555008 98.284821,133.810791 98.214417,134.066559   C98.487709,134.105072 98.761002,134.143585 99.549583,133.730118  z"/>
<path fill="#FC9D3B" opacity="1.000000" stroke="none" d=" M145.362701,138.903397   C145.270142,139.072388 145.177551,139.241364 144.672821,139.596130   C141.103027,134.703613 136.348587,132.660751 130.642395,132.075546   C134.557236,136.233414 138.255035,140.160767 141.952850,144.088104   C141.684326,147.697662 141.415802,151.307220 141.147278,154.916779   C140.557480,155.035492 139.967697,155.154205 139.377914,155.272919   C140.998062,146.663574 135.392487,142.462234 129.484009,137.699966   C126.445908,132.919769 123.886826,128.592972 121.367104,124.243385   C121.328438,124.176620 121.776192,123.828079 121.996933,123.611038   C126.313141,125.105209 130.590607,126.726463 134.956635,128.057190   C139.180710,129.344650 142.931732,131.088348 144.961136,136.101868   C145.210327,137.472916 145.286514,138.188156 145.362701,138.903397  z"/>
<path fill="none" opacity="1.000000" stroke="none" d=" M118.973808,156.999619   C119.147789,150.268570 119.602066,143.473740 114.619972,137.448517   C113.958466,145.206802 113.336143,152.505630 112.474258,160.159515   C111.383163,160.009232 110.531609,159.503906 109.354584,158.576752   C110.127701,153.222244 111.226295,148.289566 112.324883,143.356903   C111.849701,143.215790 111.374519,143.074692 110.899330,142.933578   C109.937759,144.301697 108.976181,145.669800 108.014603,147.037918   C107.747246,146.727280 107.479897,146.416626 106.929176,145.976349   C109.384178,141.434052 112.122543,137.021393 115.639503,131.354080   C118.687866,137.705276 121.561317,143.692047 124.251114,150.336487   C123.767708,151.307602 123.467941,151.621017 123.088181,151.602844   C122.400131,150.113754 121.792076,148.956299 121.184029,147.798828   C120.944534,147.908936 120.705040,148.019043 120.465546,148.129166   C120.465546,151.097824 120.465546,154.066498 120.092728,157.021545   C119.471207,157.005173 119.222504,157.002396 118.973808,156.999619  z"/>
<path fill="none" opacity="1.000000" stroke="none" d=" M178.000885,70.536774   C164.991257,71.249199 152.324036,72.835800 141.228577,81.271561   C141.628616,80.069099 141.914124,77.727844 142.989120,77.279480   C148.623581,74.929451 154.380600,72.790497 160.245300,71.099266   C165.814362,69.493309 171.568787,68.530197 177.623978,67.269882   C178.004349,68.227577 178.002441,69.199799 178.000885,70.536774  z"/>
<path fill="none" opacity="1.000000" stroke="none" d=" M68.043182,49.306400   C74.417099,54.430222 80.766113,60.038406 87.108955,66.476791   C87.017868,68.018707 86.932938,68.730438 86.848015,69.442162   C80.647911,64.007599 74.447807,58.573032 68.036148,52.923462   C67.889145,51.735889 67.953712,50.763329 68.043182,49.306400  z"/>
<path fill="none" opacity="1.000000" stroke="none" d=" M35.898392,43.065712   C38.664959,45.672405 41.186230,48.595356 43.643574,51.444199   C41.033649,51.444199 38.523140,51.444199 36.048058,51.711136   C33.233261,49.301624 30.383034,46.625175 27.416321,43.839348   C30.766279,43.653332 33.209690,43.517651 35.898392,43.065712  z"/>
<path fill="none" opacity="1.000000" stroke="none" d=" M142.102509,143.786743   C138.255035,140.160767 134.557236,136.233414 130.642395,132.075546   C136.348587,132.660751 141.103027,134.703613 144.585968,139.871796   C146.001755,140.800476 147.092194,141.639267 149.092377,143.177856   C145.729340,143.329056 143.990753,143.407227 142.102509,143.786743  z"/>
<path fill="#FD622C" opacity="1.000000" stroke="none" d=" M107.970062,147.427826   C108.976181,145.669800 109.937759,144.301697 110.899330,142.933578   C111.374519,143.074692 111.849701,143.215790 112.324883,143.356903   C111.226295,148.289566 110.127701,153.222244 108.956963,158.559616   C108.491035,160.265350 108.097260,161.566376 107.284042,162.661133   C106.577026,161.968674 106.289444,161.482498 106.001862,160.996307   C106.643074,156.603455 107.284294,152.210602 107.970062,147.427826  z"/>
<path fill="none" opacity="1.000000" stroke="none" d=" M138.902100,66.969955   C143.376801,62.690681 147.851501,58.411411 152.644958,54.018776   C153.208054,54.534630 153.452393,55.163849 153.993729,55.973755   C150.111526,60.098240 145.932327,64.042046 141.286102,67.862793   C140.180099,67.483139 139.541092,67.226547 138.902100,66.969955  z"/>
<path fill="#F8774C" opacity="1.000000" stroke="none" d=" M120.465546,157.035156   C120.465546,154.066498 120.465546,151.097824 120.465546,148.129166   C120.705040,148.019043 120.944534,147.908936 121.184029,147.798828   C121.792076,148.956299 122.400131,150.113754 123.046280,152.051636   C123.101105,155.233292 123.117828,157.634552 123.134552,160.035797   C122.595276,161.614288 122.056000,163.192795 120.966232,164.861755   C120.265839,164.788162 120.115936,164.624084 119.966034,164.459991   C119.966034,164.459991 120.023918,164.491043 120.022018,164.043274   C120.168594,161.408707 120.317070,159.221939 120.465546,157.035156  z"/>
<path fill="none" opacity="1.000000" stroke="none" d=" M121.909561,123.288895   C121.776192,123.828079 121.328438,124.176620 121.367104,124.243385   C123.886826,128.592972 126.445908,132.919769 129.195862,137.553909   C128.856537,137.900482 128.322876,137.941711 127.388535,137.991913   C123.649727,132.587509 120.311600,127.174156 116.928162,121.402527   C118.529305,121.685074 120.175751,122.325905 121.909561,123.288895  z"/>
<path fill="none" opacity="1.000000" stroke="none" d=" M190.577271,50.958546   C189.745468,50.900478 189.265167,50.855259 188.425644,50.771927   C191.501953,48.048141 194.937500,45.362480 198.938385,42.234867   C198.304672,47.709156 194.929825,49.631302 190.577271,50.958546  z"/>
<path fill="none" opacity="1.000000" stroke="none" d=" M61.948563,70.686447   C58.061821,71.020042 53.974636,71.025589 49.443100,70.966469   C49.258465,69.981377 49.518185,69.060959 50.094261,67.938583   C54.189785,68.610550 57.968952,69.484474 61.948563,70.686447  z"/>
<path fill="none" opacity="1.000000" stroke="none" d=" M165.961426,99.062912   C162.492981,97.082115 159.189789,94.701248 155.886612,92.320381   C155.939636,92.023354 155.992676,91.726326 156.045715,91.429298   C159.583176,92.601982 163.120651,93.774666 166.910629,95.168869   C166.817657,96.481201 166.472183,97.572021 165.961426,99.062912  z"/>
<path fill="#CF1212" opacity="1.000000" stroke="none" d=" M97.316666,166.392670   C97.977165,166.005280 98.664452,165.988113 99.695511,165.977600   C100.383301,169.088959 100.727318,172.193665 100.772476,175.652191   C100.473618,176.006027 100.023804,175.933990 100.023804,175.933990   C99.130348,172.876968 98.236893,169.819946 97.316666,166.392670  z"/>
<path fill="none" opacity="1.000000" stroke="none" d=" M125.143875,79.122932   C124.485550,83.291862 123.446899,87.414589 122.704620,91.757111   C122.230240,92.411369 121.459480,92.845833 120.414108,93.153198   C121.094963,88.611877 122.050423,84.197662 123.120789,79.390266   C123.744972,79.023636 124.254257,79.050186 125.143875,79.122932  z"/>
<path fill="none" opacity="1.000000" stroke="none" d=" M134.887436,100.942253   C137.567398,100.315620 140.608551,99.834305 143.968475,99.607201   C141.554413,102.334488 138.724869,104.094566 134.887436,100.942253  z"/>
<path fill="none" opacity="1.000000" stroke="none" d=" M142.939911,85.831375   C144.323669,84.677536 145.833954,83.877220 147.672867,83.066063   C148.350723,84.340370 148.699951,85.625526 149.081131,87.317978   C147.633194,88.140289 146.153305,88.555305 144.336349,88.973557   C143.688354,88.046165 143.377411,87.115532 142.939911,85.831375  z"/>
<path fill="none" opacity="1.000000" stroke="none" d=" M101.031128,87.890411   C101.646980,87.443291 102.376534,87.364784 103.284164,87.035294   C104.264236,87.860245 105.066216,88.936180 106.038208,89.768822   C106.434380,90.137268 106.660530,90.749016 106.854477,91.696388   C105.676880,93.372604 104.514870,94.771461 103.152283,92.262550   C102.440178,90.951363 101.811295,89.594978 101.031128,87.890411  z"/>
<path fill="none" opacity="1.000000" stroke="none" d=" M95.025658,104.386154   C95.350670,104.013268 95.714119,103.986778 96.342514,103.870605   C98.024757,105.087097 99.442039,106.393257 100.939186,107.773026   C97.216896,109.641899 97.216896,109.641899 95.025658,104.386154  z"/>
<path fill="none" opacity="1.000000" stroke="none" d=" M100.870216,52.267841   C101.523888,52.289318 102.033653,52.611607 102.771255,53.137459   C102.999100,55.361942 102.999100,57.382858 102.999100,59.403774   C102.241501,59.419384 101.483902,59.434994 100.726303,59.450603   C100.726303,57.156624 100.726303,54.862640 100.870216,52.267841  z"/>
<path fill="none" opacity="1.000000" stroke="none" d=" M69.097939,37.883934   C68.489891,36.379070 68.077515,34.574421 67.835037,32.384781   C69.258713,32.585880 70.512497,33.171970 71.766273,33.758064   C70.942055,35.033428 70.117828,36.308788 69.097939,37.883934  z"/>
<path fill="none" opacity="1.000000" stroke="none" d=" M115.492386,173.952850   C115.465630,172.169128 115.792061,170.337296 116.260414,168.195557   C120.083076,169.894852 119.998940,170.804428 115.492386,173.952850  z"/>
<path fill="none" opacity="1.000000" stroke="none" d=" M66.237061,119.993118   C66.671471,121.061203 66.754868,122.132980 66.778816,123.605118   C65.246155,123.576454 63.772953,123.147438 62.299751,122.718414   C62.239025,122.309570 62.178303,121.900734 62.117577,121.491890   C63.373734,120.993530 64.629890,120.495163 66.237061,119.993118  z"/>
<path fill="none" opacity="1.000000" stroke="none" d=" M83.065170,100.027664   C85.281891,99.769836 87.852158,99.679138 90.598846,99.921677   C88.304665,102.487854 85.852303,102.490623 83.065170,100.027664  z"/>
<path fill="none" opacity="1.000000" stroke="none" d=" M80.102737,83.786217   C81.502716,84.029716 82.757225,84.639267 84.245193,85.512466   C83.991013,86.582069 83.503395,87.388023 83.008255,88.573990   C81.878860,88.686058 80.756981,88.418129 79.316956,88.005737   C79.318298,86.624939 79.637794,85.388603 80.102737,83.786217  z"/>
<path fill="#F9E5E2" opacity="1.000000" stroke="none" d=" M123.560318,160.033173   C123.117828,157.634552 123.101105,155.233292 123.126282,152.383240   C123.467941,151.621017 123.767708,151.307602 124.234497,150.705658   C124.623230,153.371857 124.844948,156.326569 124.952141,159.652069   C124.553780,160.025436 124.269936,160.028000 123.560318,160.033173  z"/>
<path fill="none" opacity="1.000000" stroke="none" d=" M68.352020,128.434280   C68.383263,126.384460 68.666557,124.568550 69.076767,122.376892   C71.983276,124.992538 71.773125,127.329216 68.352020,128.434280  z"/>
<path fill="none" opacity="1.000000" stroke="none" d=" M187.009949,50.668228   C185.578613,51.472061 184.142639,51.885288 182.706650,52.298519   C182.600235,52.052563 182.493820,51.806606 182.387405,51.560654   C183.712433,50.442608 185.037445,49.324566 186.668518,48.070267   C186.984818,48.715214 186.995056,49.496422 187.009949,50.668228  z"/>
<path fill="none" opacity="1.000000" stroke="none" d=" M123.605667,167.289673   C124.047798,167.095963 124.253273,167.129898 124.763313,167.094421   C125.067886,168.205078 125.067886,169.385132 125.067886,170.565170   C124.501595,170.568512 123.935295,170.571854 123.369003,170.575195   C123.369003,169.555893 123.369003,168.536606 123.605667,167.289673  z"/>
<path fill="none" opacity="1.000000" stroke="none" d=" M88.867821,83.152710   C87.354263,82.269363 85.891731,80.940193 84.695038,79.323257   C86.186974,79.467148 87.413078,79.898804 88.830276,80.624397   C88.987198,81.514526 88.953018,82.110703 88.867821,83.152710  z"/>
<path fill="#EECFCF" opacity="1.000000" stroke="none" d=" M117.246773,34.622002   C116.602051,34.912693 116.143425,34.957047 115.334671,34.985275   C116.125038,33.813236 117.265511,32.657330 118.405983,31.501425   C118.785858,31.914511 119.165741,32.327599 119.545624,32.740685   C118.841370,33.285675 118.137115,33.830669 117.246773,34.622002  z"/>
<path fill="none" opacity="1.000000" stroke="none" d=" M100.048462,176.287964   C100.023804,175.933990 100.473618,176.006027 100.700867,175.990448   C101.669769,176.927979 102.411438,177.881058 103.153107,178.834137   C102.694260,179.128052 102.235413,179.421967 101.776566,179.715881   C101.208748,178.691238 100.640938,177.666595 100.048462,176.287964  z"/>
<path fill="#CF1212" opacity="1.000000" stroke="none" d=" M100.145004,162.679321   C100.094543,161.498138 100.149986,159.977692 100.476074,158.262146   C100.581444,159.491364 100.416176,160.915710 100.145004,162.679321  z"/>
<path fill="none" opacity="1.000000" stroke="none" d=" M162.849091,89.163307   C161.865952,89.221085 160.908752,88.871964 159.771515,88.289978   C160.225677,87.542610 160.859863,87.028099 161.494049,86.513588   C161.954376,87.261192 162.414688,88.008804 162.849091,89.163307  z"/>
<path fill="none" opacity="1.000000" stroke="none" d=" M48.969318,57.388527   C50.379807,57.451687 51.757359,57.948814 53.134911,58.445942   C52.996872,58.884411 52.858837,59.322884 52.720802,59.761356   C51.625137,59.495953 50.529472,59.230553 49.151932,58.827774   C48.892166,58.401093 48.914276,58.111794 48.969318,57.388527  z"/>
<path fill="none" opacity="1.000000" stroke="none" d=" M178.093781,58.255798   C176.674683,59.006054 175.224060,59.322910 173.773422,59.639771   C173.622391,59.179398 173.471359,58.719028 173.320328,58.258656   C174.645538,57.828587 175.970749,57.398518 177.646866,56.962082   C178.019257,57.244617 178.040741,57.533512 178.093781,58.255798  z"/>
<path fill="none" opacity="1.000000" stroke="none" d=" M72.132584,24.539280   C72.697464,23.601799 73.256683,22.847372 73.815910,22.092943   C74.140991,22.350731 74.466072,22.608521 74.791153,22.866308   C74.202263,23.531391 73.613373,24.196476 72.733566,24.884789   C72.442650,24.908020 72.126923,24.722334 72.132584,24.539280  z"/>
<path fill="none" opacity="1.000000" stroke="none" d=" M170.083649,97.185905   C169.983841,96.731506 170.017929,96.564850 170.214355,96.201286   C171.222473,96.584167 172.068237,97.163963 172.914001,97.743759   C172.690414,98.074341 172.466827,98.404930 172.243256,98.735519   C171.568008,98.314896 170.892776,97.894272 170.083649,97.185905  z"/>
<path fill="none" opacity="1.000000" stroke="none" d=" M56.353867,96.050949   C56.655148,96.004082 56.975437,96.380928 57.021011,96.623779   C56.774033,97.917793 56.481480,98.968956 56.188931,100.020126   C55.521091,99.363014 54.853256,98.705902 54.185421,98.048790   C54.807808,97.398460 55.430199,96.748138 56.353867,96.050949  z"/>
<path fill="none" opacity="1.000000" stroke="none" d=" M99.011909,61.984550   C99.620201,62.534107 100.228485,63.083668 100.836761,63.633228   C100.554253,63.931210 100.271736,64.229187 99.989227,64.527176   C99.659836,63.917496 99.330437,63.307819 99.000351,62.349129   C98.999664,62.000114 99.011909,61.984550 99.011909,61.984550  z"/>
<path fill="none" opacity="1.000000" stroke="none" d=" M189.176941,64.061394   C189.724152,63.427677 190.571381,62.921051 191.713684,62.363785   C191.164825,62.938259 190.320908,63.563370 189.176941,64.061394  z"/>
<path fill="none" opacity="1.000000" stroke="none" d=" M154.410706,99.250626   C155.242218,99.594910 156.073746,99.939186 157.105194,100.564545   C156.865845,101.441490 156.426559,102.037369 155.922745,103.017029   C155.143677,102.644585 154.429138,101.888359 153.834381,100.550858   C154.106323,99.729935 154.258514,99.490280 154.410706,99.250626  z"/>
<path fill="none" opacity="1.000000" stroke="none" d=" M160.289185,127.957436   C159.992142,127.246330 160.024414,126.492126 160.137695,125.368721   C160.351959,125.971123 160.485229,126.942734 160.289185,127.957436  z"/>
<path fill="none" opacity="1.000000" stroke="none" d=" M131.044220,104.037460   C131.400284,104.021889 131.433807,104.190926 131.396912,104.264366   C131.102478,105.381889 130.844940,106.425980 130.293701,107.735031   C130.000000,108.000000 129.990448,107.990898 129.990448,107.990898   C130.223022,106.678276 130.455597,105.365654 131.044220,104.037460  z"/>
<path fill="none" opacity="1.000000" stroke="none" d=" M155.733795,41.047401   C155.336243,42.082020 154.530930,43.110275 153.439819,44.312935   C153.878036,43.338573 154.602036,42.189804 155.733795,41.047401  z"/>
<path fill="none" opacity="1.000000" stroke="none" d=" M66.911842,87.966644   C66.348335,88.652916 65.578392,89.031090 64.490997,89.490868   C65.017502,88.934502 65.861458,88.296532 66.911842,87.966644  z"/>
<path fill="none" opacity="1.000000" stroke="none" d=" M71.957077,99.967651   C72.744049,99.268921 73.639885,99.177086 74.535721,99.085243   C74.819527,99.454926 75.103325,99.824600 75.387123,100.194275   C74.579094,100.615692 73.771057,101.037102 72.670624,101.613022   C72.274124,101.369858 72.170036,100.972198 71.957077,99.967651  z"/>
<path fill="none" opacity="1.000000" stroke="none" d=" M105.889221,161.268799   C106.289444,161.482498 106.577026,161.968674 106.924698,162.747314   C106.589348,163.239380 106.193932,163.438980 105.798508,163.638580   C105.791206,162.939484 105.783897,162.240387 105.889221,161.268799  z"/>
<path fill="none" opacity="1.000000" stroke="none" d=" M151.271088,105.911774   C151.975815,106.337395 152.373581,106.907379 152.791748,107.740311   C152.196136,107.354218 151.580139,106.705170 151.271088,105.911774  z"/>
<path fill="none" opacity="1.000000" stroke="none" d=" M38.984413,39.980350   C38.493790,39.467297 38.138409,38.630104 37.756149,37.445004   C38.192730,37.950134 38.656193,38.803173 38.984413,39.980350  z"/>
<path fill="none" opacity="1.000000" stroke="none" d=" M154.888535,23.798637   C154.686874,24.221998 154.352203,24.348057 153.755615,24.403564   C153.184845,23.760309 152.875992,23.187605 152.567154,22.614899   C153.296600,22.910376 154.026062,23.205854 154.888535,23.798637  z"/>
<path fill="none" opacity="1.000000" stroke="none" d=" M114.796783,113.384293   C114.334396,113.610580 113.926842,113.486740 113.259827,113.173309   C113.399216,112.506439 113.798058,112.029160 114.196899,111.551888   C114.415138,112.045975 114.633377,112.540070 114.796783,113.384293  z"/>
<path fill="none" opacity="1.000000" stroke="none" d=" M130.004547,108.004807   C129.702774,108.517799 129.396454,109.025993 129.090134,109.534180   C128.880295,109.351952 128.670456,109.169724 128.460617,108.987495   C128.781509,108.680618 129.102417,108.373741 129.706879,108.028877   C129.990448,107.990898 130.000000,108.000000 130.004547,108.004807  z"/>
<path fill="none" opacity="1.000000" stroke="none" d=" M167.039978,80.381531   C167.449173,80.070236 167.897888,80.042633 168.673340,80.106552   C168.666275,80.666306 168.332489,81.134552 167.998718,81.602791   C167.692307,81.290268 167.385910,80.977745 167.039978,80.381531  z"/>
<path fill="none" opacity="1.000000" stroke="none" d=" M65.040237,80.382294   C65.449699,80.063309 65.898964,80.028435 66.673996,80.090515   C66.667755,80.658752 66.335739,81.130035 66.003731,81.601311   C65.695831,81.289673 65.387932,80.978035 65.040237,80.382294  z"/>
<path fill="none" opacity="1.000000" stroke="none" d=" M165.014069,41.900734   C164.821518,41.467369 164.935913,41.041096 165.174881,40.307400   C165.739777,40.322456 166.180069,40.644936 166.620377,40.967415   C166.187256,41.280888 165.754135,41.594360 165.014069,41.900734  z"/>
<path fill="none" opacity="1.000000" stroke="none" d=" M111.594315,36.011971   C111.750877,36.885151 111.617432,37.806396 111.205200,38.673618   C111.052376,37.766407 111.178345,36.913219 111.594315,36.011971  z"/>
<path fill="none" opacity="1.000000" stroke="none" d=" M105.868362,49.877701   C105.987770,49.304508 106.151588,49.027889 106.315414,48.751270   C106.444939,49.605076 106.574463,50.458881 106.576149,51.585297   C106.269806,51.296700 106.091293,50.735489 105.868362,49.877701  z"/>
<path fill="none" opacity="1.000000" stroke="none" d=" M112.906693,54.015701   C112.555954,53.281490 112.248596,52.197182 111.941238,51.112873   C112.267487,51.509979 112.593742,51.907089 112.966171,52.633499   C112.991585,53.197063 112.970833,53.431332 112.906693,54.015701  z"/>
<path fill="none" opacity="1.000000" stroke="none" d=" M114.249413,52.962631   C114.048195,52.541508 114.132027,52.095531 114.310295,51.322388   C114.803192,51.380417 115.201653,51.765606 115.600113,52.150803   C115.244896,52.413124 114.889679,52.675446 114.249413,52.962631  z"/>
<path fill="none" opacity="1.000000" stroke="none" d=" M119.825363,164.492950   C120.115936,164.624084 120.265839,164.788162 120.709335,165.110229   C120.917198,165.862869 120.831459,166.457520 120.745712,167.052170   C120.537155,167.080231 120.328598,167.108292 120.120041,167.136368   C119.985733,166.605759 119.851425,166.075150 119.637108,165.164856   C119.557098,164.785156 119.684692,164.525894 119.825363,164.492950  z"/>
<path fill="none" opacity="1.000000" stroke="none" d=" M104.360229,136.067963   C104.053780,135.506210 104.051582,134.948273 104.195137,134.128922   C104.588249,133.888840 104.835602,133.910172 105.454002,133.963120   C105.438194,134.687088 105.051331,135.379440 104.360229,136.067963  z"/>
<path fill="none" opacity="1.000000" stroke="none" d=" M145.543549,138.693481   C145.286514,138.188156 145.210327,137.472916 145.144806,136.398193   C145.345108,136.853653 145.534760,137.668610 145.543549,138.693481  z"/>
<path fill="none" opacity="1.000000" stroke="none" d=" M67.042648,93.533028   C67.776329,93.140060 68.552109,93.097168 70.742256,92.976067   C68.968117,93.830421 68.413757,94.097374 67.530670,94.471420   C67.162880,94.346695 67.123817,94.114899 67.042648,93.533028  z"/>
<path fill="none" opacity="1.000000" stroke="none" d=" M113.739548,202.354889   C113.991730,202.369675 114.129280,202.504654 114.266823,202.639618   C114.052856,202.584763 113.838890,202.529922 113.739548,202.354889  z"/>
<path fill="none" opacity="1.000000" stroke="none" d=" M130.740204,93.354630   C130.991928,93.369370 131.129211,93.504158 131.266495,93.638947   C131.052917,93.584190 130.839355,93.529434 130.740204,93.354630  z"/>
<path fill="none" opacity="1.000000" stroke="none" d=" M199.633453,79.209030   C200.116074,79.278801 200.302673,79.416229 200.489288,79.553650   C200.272659,79.672325 200.056015,79.791000 199.724213,79.864754   C199.518524,79.638779 199.427979,79.457733 199.633453,79.209030  z"/>
<path fill="none" opacity="1.000000" stroke="none" d=" M202.465240,80.448097   C202.522400,80.413681 202.408066,80.482513 202.465240,80.448097  z"/>
<path fill="none" opacity="1.000000" stroke="none" d=" M105.470711,81.139984   C105.571144,81.067825 105.663902,81.499023 105.540482,81.681366   C105.220169,81.654007 105.204575,81.436821 105.470711,81.139984  z"/>
<path fill="none" opacity="1.000000" stroke="none" d=" M107.466026,165.447525   C107.523682,165.412689 107.408371,165.482361 107.466026,165.447525  z"/>
<path fill="#F9E5E2" opacity="1.000000" stroke="none" d=" M124.318222,162.764908   C124.466606,162.829071 124.421906,163.260696 124.178162,163.820938   C124.027786,163.677155 124.076462,163.404755 124.318222,162.764908  z"/>
<path fill="none" opacity="1.000000" stroke="none" d=" M98.991806,62.006302   C98.865837,61.864479 98.747734,61.716465 98.629623,61.568451   C98.717651,61.616096 98.805687,61.663742 98.952812,61.847969   C99.011909,61.984550 98.999664,62.000114 98.991806,62.006302  z"/>
<path fill="none" opacity="1.000000" stroke="none" d=" M85.116028,78.695518   C82.694046,78.166290 80.444031,77.201462 78.129936,76.428490   C74.235344,75.127594 70.300041,73.948555 66.227463,72.375252   C73.324837,71.534538 79.575478,74.079018 85.116028,78.695518  z"/>
<path fill="none" opacity="1.000000" stroke="none" d=" M86.987350,69.726021   C86.932938,68.730438 87.017868,68.018707 87.209534,66.776352   C89.538666,69.708923 91.761063,73.172119 93.517960,76.574020   C91.077202,74.345116 89.101944,72.177498 86.987350,69.726021  z"/>
<path fill="none" opacity="1.000000" stroke="none" d=" M60.186996,53.473396   C60.394520,53.027153 60.853867,52.877270 61.325108,52.805710   C61.377937,52.797684 61.498150,53.233410 61.587112,53.463352   C61.205517,53.573177 60.823921,53.683002 60.186996,53.473396  z"/>
<path fill="none" opacity="1.000000" stroke="none" d=" M138.611237,67.134079   C139.541092,67.226547 140.180099,67.483139 140.999390,68.046906   C138.130630,71.482201 135.081558,74.610336 131.742050,77.362732   C133.741211,73.757401 136.030807,70.527809 138.611237,67.134079  z"/>
<path fill="none" opacity="1.000000" stroke="none" d=" M166.825958,52.816849   C166.502319,53.233921 165.934845,53.319916 165.367371,53.405907   C165.772293,53.099197 166.177216,52.792488 166.825958,52.816849  z"/>
<path fill="none" opacity="1.000000" stroke="none" d=" M127.272285,88.889908   C126.983788,88.477974 127.012062,87.917885 127.530708,87.401077   C127.877068,87.876823 127.733063,88.309288 127.272285,88.889908  z"/>
<path fill="none" opacity="1.000000" stroke="none" d=" M153.668854,100.285721   C153.036133,100.276810 152.688705,99.951775 152.341293,99.626740   C152.853775,99.435204 153.366241,99.243668 154.144714,99.151382   C154.258514,99.490280 154.106323,99.729935 153.668854,100.285721  z"/>
<path fill="none" opacity="1.000000" stroke="none" d=" M102.144554,140.133759   C101.406715,140.407745 100.848755,140.321793 100.290802,140.235840   C100.994324,139.203018 101.697845,138.170227 102.745178,137.071838   C102.834137,137.928772 102.579285,138.851288 102.144554,140.133759  z"/>
<path fill="none" opacity="1.000000" stroke="none" d=" M103.360909,137.209808   C103.159126,136.698242 103.298035,136.310150 103.757545,135.975281   C103.952629,136.463425 103.827118,136.898346 103.360909,137.209808  z"/>
<path fill="none" opacity="1.000000" stroke="none" d=" M100.915909,142.024796   C100.704544,141.585342 100.885773,141.094421 101.518951,140.624741   C101.750114,141.088425 101.529305,141.530869 100.915909,142.024796  z"/>
<path fill="none" opacity="1.000000" stroke="none" d=" M120.092728,157.021545   C120.317070,159.221939 120.168594,161.408707 120.009811,164.073761   C119.228241,164.028946 117.802040,163.501846 117.805222,162.983505   C117.815903,161.240662 118.335655,159.500931 118.817215,157.379822   C119.222504,157.002396 119.471207,157.005173 120.092728,157.021545  z"/>
<path fill="none" opacity="1.000000" stroke="none" d=" M99.291939,133.956116   C98.761002,134.143585 98.487709,134.105072 98.214417,134.066559   C98.284821,133.810791 98.355225,133.555008 98.425621,133.299240   C98.800278,133.442871 99.174927,133.586487 99.291939,133.956116  z"/>
</svg>
